# xmcd
#
# Track frame offsets: 
#        150
#        15203
#        34802
#        56191
#        81560
#        100957
#        118716
#        136687
#        154758
#        174804
#
# Disc length: 2676 seconds
#
# Revision: 0
# Processed by: cddbd v1.5.2PL0 Copyright (c) Steve Scherf et al.
# Submitted via: ExactAudioCopy v0.90b4
#
DISCID=760a720a
DTITLE=Donald Ray Johnson - It's Time
DYEAR=2010
DGENRE=Blues
TTITLE0=These Blues
TTITLE1=It's Time
TTITLE2=Working Girl Blues
TTITLE3=Change Is Going To Come
TTITLE4=Heavy Love
TTITLE5=Girl Friend Blues
TTITLE6=Ain't No Fun To Me
TTITLE7=Louisiana Country Girl
TTITLE8=Watching You
TTITLE9=Rainy Night In Georgia
EXTD=
EXTT0=
EXTT1=
EXTT2=
EXTT3=
EXTT4=
EXTT5=
EXTT6=
EXTT7=
EXTT8=
EXTT9=
PLAYORDER=
